<mxfile host="app.diagrams.net" modified="2022-03-23T23:29:39.420Z" agent="5.0 (X11; Linux x86_64) AppleWebKit/537.36 (KHTML, like Gecko) Chrome/99.0.4844.51 Safari/537.36 Edg/99.0.1150.38" etag="G17AWhlgmGqGGqrL4Omo" version="17.2.1" type="github">
  <diagram id="2f404044-711c-603c-8f00-f6bb4c023d3c" name="Page-1">
    <mxGraphModel dx="1422" dy="769" grid="1" gridSize="10" guides="1" tooltips="1" connect="1" arrows="1" fold="1" page="1" pageScale="1" pageWidth="1169" pageHeight="827" background="none" math="0" shadow="0">
      <root>
        <mxCell id="0" />
        <mxCell id="1" parent="0" />
        <mxCell id="63" value="&lt;span style=&quot;color: rgb(66, 119, 187); font-family: helvetica; font-size: 12px; font-style: normal; font-weight: 400; letter-spacing: normal; text-align: left; text-indent: 0px; text-transform: none; word-spacing: 0px; background-color: rgb(248, 249, 250); display: inline; float: none;&quot;&gt;Application component&lt;/span&gt;" style="swimlane;shadow=0;strokeColor=#7EA6E0;fillColor=#D4E1F5;align=right;startSize=0;collapsible=0;noLabel=1;strokeWidth=3;" parent="1" vertex="1">
          <mxGeometry x="80" y="40" width="980" height="710" as="geometry" />
        </mxCell>
        <mxCell id="102" value="&lt;font color=&quot;#000000&quot;&gt;Hypervisor Baremetal&lt;/font&gt;" style="text;html=1;align=left;verticalAlign=middle;fontColor=#4277BB;shadow=0;dashed=0;strokeColor=none;fillColor=none;labelBackgroundColor=none;fontStyle=1;fontSize=16;spacingLeft=5;" parent="63" vertex="1">
          <mxGeometry x="10" y="20" width="190" height="20" as="geometry" />
        </mxCell>
        <mxCell id="114" value="&lt;b&gt;&lt;font color=&quot;#000000&quot;&gt;Libvirt&lt;/font&gt;&lt;/b&gt;" style="rounded=0;html=1;shadow=0;labelBackgroundColor=none;strokeColor=none;strokeWidth=2;fillColor=#97D077;gradientColor=none;fontSize=12;fontColor=#4277BB;align=left;labelPosition=right;verticalLabelPosition=middle;verticalAlign=middle;spacingLeft=5;" parent="63" vertex="1">
          <mxGeometry x="37" y="116" width="23" height="10" as="geometry" />
        </mxCell>
        <mxCell id="115" value="&lt;b&gt;&lt;font color=&quot;#000000&quot;&gt;Baremetal Hypervisor&lt;/font&gt;&lt;/b&gt;" style="rounded=0;html=1;shadow=0;labelBackgroundColor=none;strokeColor=none;strokeWidth=2;fillColor=#7EA6E0;gradientColor=none;fontSize=12;fontColor=#4277BB;align=left;labelPosition=right;verticalLabelPosition=middle;verticalAlign=middle;spacingLeft=5;" parent="63" vertex="1">
          <mxGeometry x="37" y="136" width="20" height="10" as="geometry" />
        </mxCell>
        <mxCell id="117" value="LEGEND" style="text;html=1;align=left;verticalAlign=middle;fontColor=#4277BB;shadow=0;dashed=0;strokeColor=none;fillColor=none;labelBackgroundColor=none;fontStyle=1;fontSize=14;spacingLeft=0;" parent="63" vertex="1">
          <mxGeometry x="37" y="86" width="150" height="20" as="geometry" />
        </mxCell>
        <mxCell id="YF79DZ1GA7UTkaR4UJOx-259" style="edgeStyle=orthogonalEdgeStyle;rounded=0;orthogonalLoop=1;jettySize=auto;html=1;entryX=1;entryY=0.5;entryDx=0;entryDy=0;fontSize=12;fontColor=default;shape=link;" edge="1" parent="63" source="YF79DZ1GA7UTkaR4UJOx-246" target="YF79DZ1GA7UTkaR4UJOx-260">
          <mxGeometry relative="1" as="geometry">
            <Array as="points">
              <mxPoint x="417" y="68" />
              <mxPoint x="417" y="236" />
              <mxPoint x="357" y="236" />
            </Array>
          </mxGeometry>
        </mxCell>
        <mxCell id="YF79DZ1GA7UTkaR4UJOx-246" value="" style="swimlane;shadow=0;labelBackgroundColor=#007FFF;strokeColor=#ae4132;fillColor=#fad9d5;align=right;collapsible=0;startSize=0;strokeWidth=2;swimlaneFillColor=none;" vertex="1" parent="63">
          <mxGeometry x="237" y="40" width="120" height="50" as="geometry" />
        </mxCell>
        <mxCell id="YF79DZ1GA7UTkaR4UJOx-251" value="&lt;font style=&quot;font-size: 13px&quot;&gt;&lt;br&gt;&amp;nbsp; &amp;nbsp;&lt;font color=&quot;#000000&quot;&gt; &amp;nbsp;Private &lt;br&gt;Quay Server&lt;/font&gt;&lt;br&gt;&lt;br&gt;&lt;/font&gt;" style="text;html=1;align=left;verticalAlign=middle;fontColor=#4277BB;shadow=0;dashed=0;strokeColor=none;fillColor=none;labelBackgroundColor=none;fontStyle=1;fontSize=9;spacingLeft=5;" vertex="1" parent="YF79DZ1GA7UTkaR4UJOx-246">
          <mxGeometry x="13" y="16" width="90" height="20" as="geometry" />
        </mxCell>
        <mxCell id="YF79DZ1GA7UTkaR4UJOx-254" value="" style="swimlane;shadow=0;labelBackgroundColor=#007FFF;strokeColor=#ae4132;fillColor=#fad9d5;align=right;collapsible=0;startSize=0;strokeWidth=2;swimlaneFillColor=none;" vertex="1" parent="63">
          <mxGeometry x="237" y="122" width="120" height="48" as="geometry" />
        </mxCell>
        <mxCell id="YF79DZ1GA7UTkaR4UJOx-255" value="&lt;font style=&quot;font-size: 12px&quot;&gt;&lt;br&gt;&lt;font color=&quot;#000000&quot;&gt;Catalog Container&lt;br&gt;&lt;/font&gt;&lt;br&gt;&lt;/font&gt;" style="text;html=1;align=left;verticalAlign=middle;fontColor=#4277BB;shadow=0;dashed=0;strokeColor=none;fillColor=none;labelBackgroundColor=none;fontStyle=1;fontSize=9;spacingLeft=5;" vertex="1" parent="YF79DZ1GA7UTkaR4UJOx-254">
          <mxGeometry y="15" width="120" height="21" as="geometry" />
        </mxCell>
        <mxCell id="YF79DZ1GA7UTkaR4UJOx-260" value="" style="swimlane;shadow=0;labelBackgroundColor=#007FFF;strokeColor=#ae4132;fillColor=#fad9d5;align=right;collapsible=0;startSize=0;strokeWidth=2;swimlaneFillColor=none;" vertex="1" parent="63">
          <mxGeometry x="237" y="206" width="120" height="52" as="geometry" />
        </mxCell>
        <mxCell id="YF79DZ1GA7UTkaR4UJOx-261" value="&lt;font style=&quot;font-size: 12px&quot;&gt;&lt;br&gt;&lt;br&gt;&lt;font color=&quot;#000000&quot;&gt;OSImage httpd &lt;br&gt;&amp;nbsp; &amp;nbsp; &amp;nbsp; &amp;nbsp; &amp;nbsp;Server&lt;br&gt;&lt;/font&gt;&lt;br&gt;&lt;/font&gt;" style="text;html=1;align=left;verticalAlign=middle;fontColor=#4277BB;shadow=0;dashed=0;strokeColor=none;fillColor=none;labelBackgroundColor=none;fontStyle=1;fontSize=9;spacingLeft=5;" vertex="1" parent="YF79DZ1GA7UTkaR4UJOx-260">
          <mxGeometry x="5" y="8" width="120" height="21" as="geometry" />
        </mxCell>
        <mxCell id="YF79DZ1GA7UTkaR4UJOx-263" value="&lt;font style=&quot;font-size: 14px&quot; color=&quot;#0000ff&quot;&gt;&lt;b&gt;Podman&lt;/b&gt;&lt;/font&gt;" style="text;html=1;resizable=0;autosize=1;align=center;verticalAlign=middle;points=[];fillColor=none;strokeColor=none;rounded=0;labelBackgroundColor=default;fontSize=12;fontColor=default;" vertex="1" parent="63">
          <mxGeometry x="379" y="142" width="70" height="20" as="geometry" />
        </mxCell>
        <mxCell id="YF79DZ1GA7UTkaR4UJOx-292" value="" style="rounded=0;whiteSpace=wrap;html=1;labelBackgroundColor=default;fontSize=17;fontColor=#000099;fillColor=#C4EDAF;gradientColor=none;strokeWidth=3;strokeColor=#009900;" vertex="1" parent="63">
          <mxGeometry x="440" y="366" width="520" height="324" as="geometry" />
        </mxCell>
        <mxCell id="YF79DZ1GA7UTkaR4UJOx-294" value="" style="rounded=1;whiteSpace=wrap;html=1;labelBackgroundColor=default;fontSize=17;fontColor=#000099;strokeWidth=2;fillColor=#CCE5FF;gradientColor=none;dashed=1;" vertex="1" parent="63">
          <mxGeometry x="506" y="398" width="140" height="70" as="geometry" />
        </mxCell>
        <mxCell id="YF79DZ1GA7UTkaR4UJOx-270" value="&lt;span style=&quot;font-size: 13px&quot;&gt;&lt;font color=&quot;#000000&quot;&gt;&amp;nbsp; &amp;nbsp;master-0&lt;/font&gt;&lt;/span&gt;" style="text;html=1;align=left;verticalAlign=middle;fontColor=#4277BB;shadow=0;dashed=0;strokeColor=none;fillColor=none;labelBackgroundColor=none;fontStyle=1;fontSize=9;spacingLeft=5;" vertex="1" parent="63">
          <mxGeometry x="531" y="418" width="90" height="22" as="geometry" />
        </mxCell>
        <mxCell id="YF79DZ1GA7UTkaR4UJOx-295" value="" style="rounded=1;whiteSpace=wrap;html=1;labelBackgroundColor=default;fontSize=17;fontColor=#000099;strokeWidth=2;fillColor=#CCE5FF;gradientColor=none;dashed=1;" vertex="1" parent="63">
          <mxGeometry x="506" y="598" width="140" height="75" as="geometry" />
        </mxCell>
        <mxCell id="YF79DZ1GA7UTkaR4UJOx-296" value="&lt;span style=&quot;font-size: 13px&quot;&gt;&lt;font color=&quot;#000000&quot;&gt;&amp;nbsp; &amp;nbsp;master-2&lt;/font&gt;&lt;/span&gt;" style="text;html=1;align=left;verticalAlign=middle;fontColor=#4277BB;shadow=0;dashed=0;strokeColor=none;fillColor=none;labelBackgroundColor=none;fontStyle=1;fontSize=9;spacingLeft=5;" vertex="1" parent="63">
          <mxGeometry x="531" y="624.5" width="90" height="22" as="geometry" />
        </mxCell>
        <mxCell id="YF79DZ1GA7UTkaR4UJOx-297" style="edgeStyle=orthogonalEdgeStyle;rounded=0;orthogonalLoop=1;jettySize=auto;html=1;exitX=0.5;exitY=1;exitDx=0;exitDy=0;fontSize=17;fontColor=#000099;" edge="1" parent="63" source="YF79DZ1GA7UTkaR4UJOx-296" target="YF79DZ1GA7UTkaR4UJOx-296">
          <mxGeometry relative="1" as="geometry" />
        </mxCell>
        <mxCell id="YF79DZ1GA7UTkaR4UJOx-298" value="" style="rounded=1;whiteSpace=wrap;html=1;labelBackgroundColor=default;fontSize=17;fontColor=#000099;strokeWidth=2;fillColor=#CCE5FF;gradientColor=none;dashed=1;" vertex="1" parent="63">
          <mxGeometry x="506" y="494" width="140" height="75" as="geometry" />
        </mxCell>
        <mxCell id="YF79DZ1GA7UTkaR4UJOx-299" value="&lt;span style=&quot;font-size: 13px&quot;&gt;&lt;font color=&quot;#000000&quot;&gt;&amp;nbsp; &amp;nbsp;master-1&lt;/font&gt;&lt;/span&gt;" style="text;html=1;align=left;verticalAlign=middle;fontColor=#4277BB;shadow=0;dashed=0;strokeColor=none;fillColor=none;labelBackgroundColor=none;fontStyle=1;fontSize=9;spacingLeft=5;" vertex="1" parent="63">
          <mxGeometry x="531" y="520.5" width="90" height="22" as="geometry" />
        </mxCell>
        <mxCell id="YF79DZ1GA7UTkaR4UJOx-300" value="" style="rounded=1;whiteSpace=wrap;html=1;labelBackgroundColor=default;fontSize=17;fontColor=#000099;strokeWidth=2;fillColor=#CCE5FF;gradientColor=none;dashed=1;" vertex="1" parent="63">
          <mxGeometry x="766" y="402" width="140" height="70" as="geometry" />
        </mxCell>
        <mxCell id="YF79DZ1GA7UTkaR4UJOx-301" value="&lt;span style=&quot;font-size: 13px&quot;&gt;&lt;font color=&quot;#000000&quot;&gt;&amp;nbsp; &amp;nbsp;worker-0&lt;/font&gt;&lt;/span&gt;" style="text;html=1;align=left;verticalAlign=middle;fontColor=#4277BB;shadow=0;dashed=0;strokeColor=none;fillColor=none;labelBackgroundColor=none;fontStyle=1;fontSize=9;spacingLeft=5;" vertex="1" parent="63">
          <mxGeometry x="791" y="426" width="90" height="22" as="geometry" />
        </mxCell>
        <mxCell id="YF79DZ1GA7UTkaR4UJOx-302" value="" style="rounded=1;whiteSpace=wrap;html=1;labelBackgroundColor=default;fontSize=17;fontColor=#000099;strokeWidth=2;fillColor=#CCE5FF;gradientColor=none;dashed=1;" vertex="1" parent="63">
          <mxGeometry x="766" y="493" width="140" height="70" as="geometry" />
        </mxCell>
        <mxCell id="YF79DZ1GA7UTkaR4UJOx-303" value="&lt;span style=&quot;color: rgb(0 , 0 , 0) ; font-size: 13px&quot;&gt;&amp;nbsp; &amp;nbsp;worker-1&lt;/span&gt;" style="text;html=1;align=left;verticalAlign=middle;fontColor=#4277BB;shadow=0;dashed=0;strokeColor=none;fillColor=none;labelBackgroundColor=none;fontStyle=1;fontSize=9;spacingLeft=5;" vertex="1" parent="63">
          <mxGeometry x="791" y="524.5" width="90" height="22" as="geometry" />
        </mxCell>
        <mxCell id="YF79DZ1GA7UTkaR4UJOx-304" value="" style="rounded=1;whiteSpace=wrap;html=1;labelBackgroundColor=default;fontSize=17;fontColor=#000099;strokeWidth=2;fillColor=#CCE5FF;gradientColor=none;dashed=1;" vertex="1" parent="63">
          <mxGeometry x="766" y="598" width="140" height="70" as="geometry" />
        </mxCell>
        <mxCell id="YF79DZ1GA7UTkaR4UJOx-305" value="&lt;span style=&quot;color: rgb(0 , 0 , 0) ; font-size: 13px&quot;&gt;&amp;nbsp; &amp;nbsp;worker-2&lt;/span&gt;" style="text;html=1;align=left;verticalAlign=middle;fontColor=#4277BB;shadow=0;dashed=0;strokeColor=none;fillColor=none;labelBackgroundColor=none;fontStyle=1;fontSize=9;spacingLeft=5;" vertex="1" parent="63">
          <mxGeometry x="791" y="624.5" width="90" height="22" as="geometry" />
        </mxCell>
        <mxCell id="YF79DZ1GA7UTkaR4UJOx-310" value="&lt;font&gt;&lt;font style=&quot;font-size: 15px&quot; color=&quot;#0000cc&quot;&gt;Provisioner VM&lt;/font&gt;&lt;br&gt;&lt;/font&gt;" style="text;html=1;align=left;verticalAlign=middle;fontColor=#4277BB;shadow=0;dashed=0;strokeColor=none;fillColor=none;labelBackgroundColor=none;fontStyle=1;fontSize=9;spacingLeft=5;" vertex="1" parent="63">
          <mxGeometry x="37" y="342" width="123" height="18" as="geometry" />
        </mxCell>
        <mxCell id="YF79DZ1GA7UTkaR4UJOx-314" value="" style="endArrow=classic;html=1;rounded=0;fontSize=17;fontColor=#000000;strokeWidth=2;" edge="1" parent="63">
          <mxGeometry relative="1" as="geometry">
            <mxPoint x="690" y="260" as="sourcePoint" />
            <mxPoint x="690" y="640" as="targetPoint" />
            <Array as="points" />
          </mxGeometry>
        </mxCell>
        <mxCell id="YF79DZ1GA7UTkaR4UJOx-315" value="" style="edgeLabel;resizable=0;html=1;align=center;verticalAlign=middle;dashed=1;labelBackgroundColor=default;fontSize=17;fontColor=#000000;strokeColor=#000000;strokeWidth=2;fillColor=#FFFFFF;gradientColor=none;" connectable="0" vertex="1" parent="YF79DZ1GA7UTkaR4UJOx-314">
          <mxGeometry relative="1" as="geometry">
            <mxPoint x="22" y="84" as="offset" />
          </mxGeometry>
        </mxCell>
        <mxCell id="YF79DZ1GA7UTkaR4UJOx-376" value="" style="edgeLabel;resizable=0;html=1;align=center;verticalAlign=middle;dashed=1;labelBackgroundColor=default;fontSize=17;fontColor=#000000;strokeColor=#000000;strokeWidth=2;fillColor=#FFFFFF;gradientColor=none;" connectable="0" vertex="1" parent="YF79DZ1GA7UTkaR4UJOx-314">
          <mxGeometry relative="1" as="geometry">
            <mxPoint x="-133" y="174" as="offset" />
          </mxGeometry>
        </mxCell>
        <mxCell id="YF79DZ1GA7UTkaR4UJOx-356" value="" style="endArrow=classic;html=1;rounded=0;fontSize=17;fontColor=#000000;strokeWidth=2;" edge="1" parent="63">
          <mxGeometry relative="1" as="geometry">
            <mxPoint x="730" y="260" as="sourcePoint" />
            <mxPoint x="730" y="640" as="targetPoint" />
          </mxGeometry>
        </mxCell>
        <mxCell id="YF79DZ1GA7UTkaR4UJOx-357" value="" style="edgeLabel;resizable=0;html=1;align=center;verticalAlign=middle;dashed=1;labelBackgroundColor=default;fontSize=17;fontColor=#000000;strokeColor=#000000;strokeWidth=2;fillColor=#FFFFFF;gradientColor=none;" connectable="0" vertex="1" parent="YF79DZ1GA7UTkaR4UJOx-356">
          <mxGeometry relative="1" as="geometry">
            <mxPoint x="22" y="84" as="offset" />
          </mxGeometry>
        </mxCell>
        <mxCell id="YF79DZ1GA7UTkaR4UJOx-374" value="" style="swimlane;shadow=0;labelBackgroundColor=#007FFF;strokeColor=#FFCCE6;fillColor=#e51400;fontColor=#ffffff;align=right;collapsible=0;startSize=0;strokeWidth=3;swimlaneFillColor=none;" vertex="1" parent="63">
          <mxGeometry x="633" y="210" width="137" height="56" as="geometry" />
        </mxCell>
        <mxCell id="YF79DZ1GA7UTkaR4UJOx-375" value="&lt;font style=&quot;font-size: 13px&quot; color=&quot;#000000&quot;&gt;HaProxy&lt;/font&gt;" style="text;html=1;align=left;verticalAlign=middle;fontColor=#4277BB;shadow=0;dashed=0;strokeColor=none;fillColor=none;labelBackgroundColor=none;fontStyle=1;fontSize=9;spacingLeft=5;" vertex="1" parent="YF79DZ1GA7UTkaR4UJOx-374">
          <mxGeometry x="30" y="17" width="90" height="22" as="geometry" />
        </mxCell>
        <mxCell id="YF79DZ1GA7UTkaR4UJOx-383" value="&lt;b&gt;&lt;font color=&quot;#000000&quot;&gt;OCP Cluster&lt;/font&gt;&lt;/b&gt;" style="rounded=0;html=1;shadow=0;labelBackgroundColor=none;strokeColor=none;strokeWidth=2;fillColor=#99CCFF;gradientColor=none;fontSize=12;fontColor=#4277BB;align=left;labelPosition=right;verticalLabelPosition=middle;verticalAlign=middle;spacingLeft=5;" vertex="1" parent="63">
          <mxGeometry x="37" y="156" width="20" height="10" as="geometry" />
        </mxCell>
        <mxCell id="YF79DZ1GA7UTkaR4UJOx-394" value="&lt;b&gt;Podman&lt;/b&gt;" style="rounded=0;html=1;shadow=0;labelBackgroundColor=none;strokeColor=#ae4132;strokeWidth=2;fillColor=#fad9d5;fontSize=12;align=left;labelPosition=right;verticalLabelPosition=middle;verticalAlign=middle;spacingLeft=5;" vertex="1" parent="63">
          <mxGeometry x="37" y="176" width="20" height="10" as="geometry" />
        </mxCell>
        <mxCell id="YF79DZ1GA7UTkaR4UJOx-411" value="" style="rounded=0;whiteSpace=wrap;html=1;labelBackgroundColor=default;fontSize=17;strokeColor=#009900;strokeWidth=3;fillColor=#d5e8d4;gradientColor=#97d077;" vertex="1" parent="63">
          <mxGeometry x="10" y="366" width="330" height="324" as="geometry" />
        </mxCell>
        <mxCell id="YF79DZ1GA7UTkaR4UJOx-413" value="&lt;b&gt;&lt;font color=&quot;#0000ff&quot; style=&quot;font-size: 14px&quot;&gt;enp1s0 Baremetal Bridge&lt;/font&gt;&lt;/b&gt;" style="rounded=0;html=1;shadow=0;labelBackgroundColor=none;strokeColor=none;strokeWidth=2;fillColor=#7EA6E0;gradientColor=none;fontSize=12;fontColor=#4277BB;align=left;labelPosition=right;verticalLabelPosition=middle;verticalAlign=middle;spacingLeft=5;" vertex="1" parent="63">
          <mxGeometry x="89.5" y="440" width="20" height="10" as="geometry" />
        </mxCell>
        <mxCell id="YF79DZ1GA7UTkaR4UJOx-307" value="" style="rounded=1;whiteSpace=wrap;html=1;labelBackgroundColor=default;fontSize=17;fontColor=#000099;strokeWidth=2;fillColor=#FFFFFF;gradientColor=none;dashed=1;" vertex="1" parent="63">
          <mxGeometry x="105" y="500.5" width="140" height="70" as="geometry" />
        </mxCell>
        <mxCell id="YF79DZ1GA7UTkaR4UJOx-420" value="&lt;span style=&quot;font-size: 13px&quot;&gt;&lt;font color=&quot;#000000&quot;&gt;bootstrap&lt;/font&gt;&lt;/span&gt;" style="text;html=1;align=left;verticalAlign=middle;fontColor=#4277BB;shadow=0;dashed=0;strokeColor=none;fillColor=none;labelBackgroundColor=none;fontStyle=1;fontSize=9;spacingLeft=5;" vertex="1" parent="63">
          <mxGeometry x="130" y="520.5" width="90" height="22" as="geometry" />
        </mxCell>
        <mxCell id="YF79DZ1GA7UTkaR4UJOx-430" style="edgeStyle=none;rounded=0;orthogonalLoop=1;jettySize=auto;html=1;exitX=1;exitY=0.343;exitDx=0;exitDy=0;fontSize=15;fontColor=#0000CC;endSize=4;strokeWidth=2;exitPerimeter=0;dashed=1;dashPattern=1 1;" edge="1" parent="63" source="YF79DZ1GA7UTkaR4UJOx-411">
          <mxGeometry relative="1" as="geometry">
            <mxPoint x="690" y="476" as="targetPoint" />
            <mxPoint x="389.9979999999999" y="478.91200000000003" as="sourcePoint" />
          </mxGeometry>
        </mxCell>
        <mxCell id="YF79DZ1GA7UTkaR4UJOx-433" value="&lt;b&gt;Support VMs&lt;/b&gt;" style="rounded=0;html=1;shadow=0;labelBackgroundColor=none;strokeColor=#d79b00;strokeWidth=2;fillColor=#ffcd28;fontSize=12;align=left;labelPosition=right;verticalLabelPosition=middle;verticalAlign=middle;spacingLeft=5;gradientColor=#ffa500;" vertex="1" parent="63">
          <mxGeometry x="37" y="196" width="20" height="10" as="geometry" />
        </mxCell>
        <mxCell id="YF79DZ1GA7UTkaR4UJOx-435" value="" style="rounded=0;whiteSpace=wrap;html=1;labelBackgroundColor=default;fontSize=17;fillColor=#fff2cc;gradientColor=#ffd966;strokeWidth=3;strokeColor=#009900;" vertex="1" parent="63">
          <mxGeometry x="550" y="32" width="403" height="138" as="geometry" />
        </mxCell>
        <mxCell id="YF79DZ1GA7UTkaR4UJOx-245" value="" style="swimlane;shadow=0;labelBackgroundColor=#007FFF;strokeColor=#000000;fillColor=#e51400;fontColor=#ffffff;align=right;collapsible=0;startSize=0;strokeWidth=2;swimlaneFillColor=none;dashed=1;" vertex="1" parent="63">
          <mxGeometry x="804" y="60" width="120" height="76" as="geometry" />
        </mxCell>
        <mxCell id="YF79DZ1GA7UTkaR4UJOx-437" value="&lt;span style=&quot;font-size: 13px&quot;&gt;&lt;font color=&quot;#000000&quot;&gt;Provisioner&lt;/font&gt;&lt;/span&gt;" style="text;html=1;align=left;verticalAlign=middle;fontColor=#4277BB;shadow=0;dashed=0;strokeColor=none;fillColor=none;labelBackgroundColor=none;fontStyle=1;fontSize=9;spacingLeft=5;" vertex="1" parent="YF79DZ1GA7UTkaR4UJOx-245">
          <mxGeometry x="12" y="27" width="90" height="22" as="geometry" />
        </mxCell>
        <mxCell id="162" value="" style="swimlane;shadow=0;labelBackgroundColor=#007FFF;strokeColor=#000000;fillColor=#e51400;align=right;collapsible=0;startSize=0;strokeWidth=2;swimlaneFillColor=none;fontColor=#ffffff;dashed=1;" parent="63" vertex="1">
          <mxGeometry x="604" y="58" width="130" height="76" as="geometry" />
        </mxCell>
        <mxCell id="YF79DZ1GA7UTkaR4UJOx-438" value="&lt;span style=&quot;font-size: 13px&quot;&gt;&lt;font color=&quot;#000000&quot;&gt;DNS server&lt;/font&gt;&lt;/span&gt;" style="text;html=1;align=left;verticalAlign=middle;fontColor=#4277BB;shadow=0;dashed=0;strokeColor=none;fillColor=none;labelBackgroundColor=none;fontStyle=1;fontSize=9;spacingLeft=5;" vertex="1" parent="162">
          <mxGeometry x="23" y="26" width="90" height="22" as="geometry" />
        </mxCell>
        <mxCell id="YF79DZ1GA7UTkaR4UJOx-441" value="&lt;div style=&quot;font-size: 13px&quot;&gt;&lt;font style=&quot;font-weight: normal ; font-size: 13px&quot; color=&quot;#009900&quot;&gt;dns.simple.net&lt;/font&gt;&lt;/div&gt;&lt;div style=&quot;font-size: 13px&quot;&gt;&lt;font style=&quot;font-weight: normal ; font-size: 13px&quot; color=&quot;#009900&quot;&gt;provisioner.simple.net&lt;/font&gt;&lt;/div&gt;&lt;div style=&quot;font-size: 13px&quot;&gt;&lt;font style=&quot;font-weight: normal ; font-size: 13px&quot; color=&quot;#009900&quot;&gt;controlplane-1.simple.net&lt;/font&gt;&lt;/div&gt;&lt;div style=&quot;font-size: 13px&quot;&gt;&lt;font style=&quot;font-weight: normal ; font-size: 13px&quot; color=&quot;#009900&quot;&gt;controlplane-0.simple.net&lt;/font&gt;&lt;/div&gt;&lt;div style=&quot;font-size: 13px&quot;&gt;&lt;font style=&quot;font-weight: normal ; font-size: 13px&quot; color=&quot;#009900&quot;&gt;controlplane-2.simple.net&lt;/font&gt;&lt;/div&gt;&lt;div style=&quot;font-size: 13px&quot;&gt;&lt;font style=&quot;font-weight: normal ; font-size: 13px&quot; color=&quot;#009900&quot;&gt;worker-0.simple.net&lt;/font&gt;&lt;/div&gt;&lt;div style=&quot;font-size: 13px&quot;&gt;&lt;font style=&quot;font-weight: normal ; font-size: 13px&quot; color=&quot;#009900&quot;&gt;worker-1.simple.net&lt;/font&gt;&lt;/div&gt;" style="text;html=1;align=left;verticalAlign=middle;fontColor=#4277BB;shadow=0;dashed=0;strokeColor=none;fillColor=none;labelBackgroundColor=none;fontStyle=1;fontSize=9;spacingLeft=5;" vertex="1" parent="63">
          <mxGeometry x="794.5" y="180" width="163" height="104" as="geometry" />
        </mxCell>
        <mxCell id="YF79DZ1GA7UTkaR4UJOx-444" value="" style="line;strokeWidth=3;html=1;perimeter=backbonePerimeter;points=[];outlineConnect=0;labelBackgroundColor=#FFFFFF;fontSize=13;fontColor=#009900;fillColor=#97D077;gradientColor=none;strokeColor=#007FFF;" vertex="1" parent="63">
          <mxGeometry x="10" y="300" width="930" height="30" as="geometry" />
        </mxCell>
        <mxCell id="YF79DZ1GA7UTkaR4UJOx-445" value="&lt;font&gt;&lt;font style=&quot;font-size: 15px&quot; color=&quot;#0000cc&quot;&gt;Baremetal Network&lt;/font&gt;&lt;br&gt;&lt;/font&gt;" style="text;html=1;align=left;verticalAlign=middle;fontColor=#4277BB;shadow=0;dashed=0;strokeColor=none;fillColor=none;labelBackgroundColor=none;fontStyle=1;fontSize=9;spacingLeft=5;" vertex="1" parent="63">
          <mxGeometry x="29" y="280" width="141" height="36" as="geometry" />
        </mxCell>
        <mxCell id="YF79DZ1GA7UTkaR4UJOx-446" value="" style="line;strokeWidth=3;direction=south;html=1;perimeter=backbonePerimeter;points=[];outlineConnect=0;labelBackgroundColor=#FFFFFF;fontSize=13;fontColor=#009900;fillColor=#97D077;gradientColor=none;strokeColor=#007FFF;" vertex="1" parent="63">
          <mxGeometry x="27" y="300" width="10" height="70" as="geometry" />
        </mxCell>
        <mxCell id="YF79DZ1GA7UTkaR4UJOx-447" value="" style="line;strokeWidth=3;direction=south;html=1;perimeter=backbonePerimeter;points=[];outlineConnect=0;labelBackgroundColor=#FFFFFF;fontSize=13;fontColor=#009900;fillColor=#97D077;gradientColor=none;strokeColor=#007FFF;" vertex="1" parent="63">
          <mxGeometry x="560" y="300" width="10" height="70" as="geometry" />
        </mxCell>
        <mxCell id="YF79DZ1GA7UTkaR4UJOx-448" value="" style="line;strokeWidth=3;direction=south;html=1;perimeter=backbonePerimeter;points=[];outlineConnect=0;labelBackgroundColor=#FFFFFF;fontSize=13;fontColor=#009900;fillColor=#97D077;gradientColor=none;strokeColor=#007FFF;" vertex="1" parent="63">
          <mxGeometry x="871" y="298" width="10" height="70" as="geometry" />
        </mxCell>
        <mxCell id="YF79DZ1GA7UTkaR4UJOx-449" value="" style="ellipse;shape=doubleEllipse;whiteSpace=wrap;html=1;aspect=fixed;labelBackgroundColor=#FFFFFF;fontSize=13;fontColor=#009900;strokeColor=#007FFF;strokeWidth=1;fillColor=#FFFFFF;gradientColor=none;" vertex="1" parent="63">
          <mxGeometry x="267" y="295" width="35" height="35" as="geometry" />
        </mxCell>
        <mxCell id="YF79DZ1GA7UTkaR4UJOx-450" value="" style="ellipse;shape=doubleEllipse;whiteSpace=wrap;html=1;aspect=fixed;labelBackgroundColor=#FFFFFF;fontSize=13;fontColor=#009900;strokeColor=#007FFF;strokeWidth=1;fillColor=#FFFFFF;gradientColor=none;" vertex="1" parent="63">
          <mxGeometry x="344" y="295" width="35" height="35" as="geometry" />
        </mxCell>
        <mxCell id="YF79DZ1GA7UTkaR4UJOx-451" value="" style="ellipse;shape=doubleEllipse;whiteSpace=wrap;html=1;aspect=fixed;labelBackgroundColor=#FFFFFF;fontSize=13;fontColor=#009900;strokeColor=#007FFF;strokeWidth=1;fillColor=#FFFFFF;gradientColor=none;" vertex="1" parent="63">
          <mxGeometry x="420" y="295" width="35" height="35" as="geometry" />
        </mxCell>
        <mxCell id="YF79DZ1GA7UTkaR4UJOx-455" value="" style="edgeStyle=elbowEdgeStyle;rounded=0;elbow=vertical;html=1;labelBackgroundColor=#ffffff;startArrow=classic;startFill=1;startSize=6;endArrow=none;endFill=0;endSize=6;jettySize=auto;orthogonalLoop=1;strokeWidth=1;fontSize=14;fontColor=#009900;entryX=0.5;entryY=1;entryDx=0;entryDy=0;dashed=1;" edge="1" parent="63">
          <mxGeometry width="60" height="60" relative="1" as="geometry">
            <mxPoint x="550" y="366" as="sourcePoint" />
            <mxPoint x="364.5" y="326" as="targetPoint" />
            <Array as="points">
              <mxPoint x="490" y="336" />
            </Array>
          </mxGeometry>
        </mxCell>
        <mxCell id="YF79DZ1GA7UTkaR4UJOx-457" value="" style="edgeStyle=elbowEdgeStyle;rounded=0;elbow=vertical;html=1;labelBackgroundColor=#ffffff;startArrow=classic;startFill=1;startSize=6;endArrow=none;endFill=0;endSize=6;jettySize=auto;orthogonalLoop=1;strokeWidth=1;fontSize=14;fontColor=#009900;entryX=0.5;entryY=1;entryDx=0;entryDy=0;dashed=1;" edge="1" parent="63">
          <mxGeometry width="60" height="60" relative="1" as="geometry">
            <mxPoint x="621" y="366" as="sourcePoint" />
            <mxPoint x="435.5" y="326" as="targetPoint" />
            <Array as="points">
              <mxPoint x="561" y="336" />
            </Array>
          </mxGeometry>
        </mxCell>
        <mxCell id="YF79DZ1GA7UTkaR4UJOx-458" value="&lt;span style=&quot;font-size: 13px&quot;&gt;&lt;font color=&quot;#0000ff&quot;&gt;&amp;nbsp; &amp;nbsp; API VIP&lt;/font&gt;&lt;/span&gt;" style="text;html=1;align=left;verticalAlign=middle;fontColor=#4277BB;shadow=0;dashed=0;strokeColor=none;fillColor=none;labelBackgroundColor=none;fontStyle=1;fontSize=9;spacingLeft=5;" vertex="1" parent="63">
          <mxGeometry x="242" y="276" width="90" height="22" as="geometry" />
        </mxCell>
        <mxCell id="YF79DZ1GA7UTkaR4UJOx-459" value="&lt;span style=&quot;font-size: 13px&quot;&gt;&lt;font color=&quot;#0000ff&quot;&gt;&amp;nbsp; DNS VIP&lt;/font&gt;&lt;/span&gt;" style="text;html=1;align=left;verticalAlign=middle;fontColor=#4277BB;shadow=0;dashed=0;strokeColor=none;fillColor=none;labelBackgroundColor=none;fontStyle=1;fontSize=9;spacingLeft=5;" vertex="1" parent="63">
          <mxGeometry x="320" y="276" width="90" height="22" as="geometry" />
        </mxCell>
        <mxCell id="YF79DZ1GA7UTkaR4UJOx-460" value="&lt;span style=&quot;font-size: 13px&quot;&gt;&lt;font color=&quot;#0000ff&quot;&gt;Ingress VIP&lt;/font&gt;&lt;/span&gt;" style="text;html=1;align=left;verticalAlign=middle;fontColor=#4277BB;shadow=0;dashed=0;strokeColor=none;fillColor=none;labelBackgroundColor=none;fontStyle=1;fontSize=9;spacingLeft=5;" vertex="1" parent="63">
          <mxGeometry x="400" y="276" width="90" height="22" as="geometry" />
        </mxCell>
        <mxCell id="YF79DZ1GA7UTkaR4UJOx-463" value="6443&lt;br&gt;22623" style="text;html=1;resizable=0;autosize=1;align=center;verticalAlign=middle;points=[];fillColor=none;strokeColor=none;rounded=0;labelBackgroundColor=#FFFFFF;fontSize=13;fontColor=#0000FF;" vertex="1" parent="63">
          <mxGeometry x="645" y="265" width="50" height="40" as="geometry" />
        </mxCell>
        <mxCell id="YF79DZ1GA7UTkaR4UJOx-464" value="80&lt;br&gt;443" style="text;html=1;resizable=0;autosize=1;align=center;verticalAlign=middle;points=[];fillColor=none;strokeColor=none;rounded=0;labelBackgroundColor=#FFFFFF;fontSize=13;fontColor=#0000FF;" vertex="1" parent="63">
          <mxGeometry x="726" y="266" width="40" height="40" as="geometry" />
        </mxCell>
        <mxCell id="YF79DZ1GA7UTkaR4UJOx-476" value="&lt;font&gt;&lt;font style=&quot;font-size: 15px&quot; color=&quot;#0000cc&quot;&gt;Support VMs&lt;/font&gt;&lt;br&gt;&lt;/font&gt;" style="text;html=1;align=left;verticalAlign=middle;fontColor=#4277BB;shadow=0;dashed=0;strokeColor=none;fillColor=none;labelBackgroundColor=none;fontStyle=1;fontSize=9;spacingLeft=5;" vertex="1" parent="63">
          <mxGeometry x="550" width="141" height="32" as="geometry" />
        </mxCell>
        <mxCell id="YF79DZ1GA7UTkaR4UJOx-288" value="&lt;font color=&quot;#000099&quot; size=&quot;1&quot;&gt;&lt;b style=&quot;font-size: 16px&quot;&gt;Disconnected IPI Libvirt&amp;nbsp;&lt;/b&gt;&lt;/font&gt;" style="text;html=1;resizable=0;autosize=1;align=center;verticalAlign=middle;points=[];fillColor=none;strokeColor=none;rounded=0;labelBackgroundColor=default;fontSize=12;fontColor=default;" vertex="1" parent="1">
          <mxGeometry x="80" y="10" width="200" height="20" as="geometry" />
        </mxCell>
        <mxCell id="YF79DZ1GA7UTkaR4UJOx-426" style="edgeStyle=none;rounded=0;orthogonalLoop=1;jettySize=auto;html=1;fontSize=15;fontColor=#0000CC;endSize=4;strokeWidth=2;exitX=0.997;exitY=0.679;exitDx=0;exitDy=0;exitPerimeter=0;dashed=1;dashPattern=1 1;" edge="1" parent="1" source="YF79DZ1GA7UTkaR4UJOx-411">
          <mxGeometry relative="1" as="geometry">
            <mxPoint x="770" y="625" as="targetPoint" />
            <mxPoint x="420" y="620" as="sourcePoint" />
          </mxGeometry>
        </mxCell>
        <mxCell id="YF79DZ1GA7UTkaR4UJOx-453" value="" style="edgeStyle=elbowEdgeStyle;rounded=0;elbow=vertical;html=1;labelBackgroundColor=#ffffff;startArrow=classic;startFill=1;startSize=6;endArrow=none;endFill=0;endSize=6;jettySize=auto;orthogonalLoop=1;strokeWidth=1;fontSize=14;fontColor=#009900;entryX=0.5;entryY=1;entryDx=0;entryDy=0;dashed=1;" edge="1" parent="1" target="YF79DZ1GA7UTkaR4UJOx-449">
          <mxGeometry width="60" height="60" relative="1" as="geometry">
            <mxPoint x="550" y="420" as="sourcePoint" />
            <mxPoint x="610" y="370" as="targetPoint" />
            <Array as="points">
              <mxPoint x="490" y="390" />
            </Array>
          </mxGeometry>
        </mxCell>
        <mxCell id="YF79DZ1GA7UTkaR4UJOx-468" style="edgeStyle=none;rounded=0;orthogonalLoop=1;jettySize=auto;html=1;exitX=1;exitY=0.5;exitDx=0;exitDy=0;fontSize=13;fontColor=#0000FF;startArrow=none;startFill=0;endArrow=block;endFill=1;endSize=4;strokeWidth=1;" edge="1" parent="1" source="YF79DZ1GA7UTkaR4UJOx-294">
          <mxGeometry relative="1" as="geometry">
            <mxPoint x="770" y="473" as="targetPoint" />
          </mxGeometry>
        </mxCell>
        <mxCell id="YF79DZ1GA7UTkaR4UJOx-469" style="edgeStyle=none;rounded=0;orthogonalLoop=1;jettySize=auto;html=1;exitX=1;exitY=0.5;exitDx=0;exitDy=0;fontSize=13;fontColor=#0000FF;startArrow=none;startFill=0;endArrow=block;endFill=1;endSize=4;strokeWidth=1;" edge="1" parent="1" source="YF79DZ1GA7UTkaR4UJOx-298">
          <mxGeometry relative="1" as="geometry">
            <mxPoint x="770" y="572" as="targetPoint" />
          </mxGeometry>
        </mxCell>
        <mxCell id="YF79DZ1GA7UTkaR4UJOx-470" style="edgeStyle=none;rounded=0;orthogonalLoop=1;jettySize=auto;html=1;exitX=1;exitY=0.5;exitDx=0;exitDy=0;fontSize=13;fontColor=#0000FF;startArrow=none;startFill=0;endArrow=block;endFill=1;endSize=4;strokeWidth=1;" edge="1" parent="1" source="YF79DZ1GA7UTkaR4UJOx-295">
          <mxGeometry relative="1" as="geometry">
            <mxPoint x="770" y="676" as="targetPoint" />
          </mxGeometry>
        </mxCell>
        <mxCell id="YF79DZ1GA7UTkaR4UJOx-472" style="edgeStyle=none;rounded=0;orthogonalLoop=1;jettySize=auto;html=1;exitX=0;exitY=0.5;exitDx=0;exitDy=0;fontSize=13;fontColor=#0000FF;startArrow=none;startFill=0;endArrow=block;endFill=1;endSize=4;strokeWidth=1;" edge="1" parent="1" source="YF79DZ1GA7UTkaR4UJOx-300">
          <mxGeometry relative="1" as="geometry">
            <mxPoint x="810" y="477" as="targetPoint" />
          </mxGeometry>
        </mxCell>
        <mxCell id="YF79DZ1GA7UTkaR4UJOx-473" style="edgeStyle=none;rounded=0;orthogonalLoop=1;jettySize=auto;html=1;exitX=0;exitY=0.5;exitDx=0;exitDy=0;fontSize=13;fontColor=#0000FF;startArrow=none;startFill=0;endArrow=block;endFill=1;endSize=4;strokeWidth=1;" edge="1" parent="1" source="YF79DZ1GA7UTkaR4UJOx-302">
          <mxGeometry relative="1" as="geometry">
            <mxPoint x="810" y="568" as="targetPoint" />
          </mxGeometry>
        </mxCell>
        <mxCell id="YF79DZ1GA7UTkaR4UJOx-474" style="edgeStyle=none;rounded=0;orthogonalLoop=1;jettySize=auto;html=1;exitX=0;exitY=0.5;exitDx=0;exitDy=0;fontSize=13;fontColor=#0000FF;startArrow=none;startFill=0;endArrow=block;endFill=1;endSize=4;strokeWidth=1;" edge="1" parent="1" source="YF79DZ1GA7UTkaR4UJOx-304">
          <mxGeometry relative="1" as="geometry">
            <mxPoint x="810" y="673" as="targetPoint" />
          </mxGeometry>
        </mxCell>
      </root>
    </mxGraphModel>
  </diagram>
</mxfile>
